<svg id="Camada_1" data-name="Camada 1" xmlns="http://www.w3.org/2000/svg" viewBox="0 0 314.41 117.44"><defs><style>.cls-1{fill:#fff;}.cls-2{fill:#008d36;}.cls-3{fill:#063;}</style></defs><polygon class="cls-1" points="125.99 56.35 137.05 56.35 137.05 51.54 121.1 51.54 121.1 77.14 125.99 77.14 125.99 66.01 134.24 66.01 134.24 61.48 125.99 61.48 125.99 56.35"/><path class="cls-1" d="M151,60.86A8.38,8.38,0,0,0,148.32,59a7.69,7.69,0,0,0-3.09-.63,8,8,0,0,0-6.08,2.71,9.82,9.82,0,0,0-2.5,6.94,9.6,9.6,0,0,0,2.58,6.84,8.16,8.16,0,0,0,6.13,2.75,7.47,7.47,0,0,0,2.93-.57A9,9,0,0,0,151,75.2v1.94h4.59V58.84H151Zm-1.23,11a4.73,4.73,0,0,1-3.58,1.5,4.65,4.65,0,0,1-3.53-1.53,5.5,5.5,0,0,1-1.43-3.9,5.43,5.43,0,0,1,1.41-3.86,4.62,4.62,0,0,1,3.53-1.5,4.77,4.77,0,0,1,3.6,1.48A5.36,5.36,0,0,1,151.19,68,5.5,5.5,0,0,1,149.76,71.9Z"/><path class="cls-1" d="M162.83,51.31a2.92,2.92,0,0,0-3,2.89,2.88,2.88,0,0,0,.83,2.15,2.84,2.84,0,0,0,2.07.92,2.78,2.78,0,0,0,2.06-.84,3,3,0,0,0,0-4.21A2.81,2.81,0,0,0,162.83,51.31Z"/><rect class="cls-1" x="153.46" y="65.69" width="18.29" height="4.59" transform="translate(92.4 229.65) rotate(-89.22)"/><path class="cls-1" d="M175.19,59.3a4.94,4.94,0,0,0-1.7,2.06v-2.3h-3.93V77.35h4.55V69.06c0-2.55.24-4.27.73-5.14a2.52,2.52,0,0,1,2.22-1.1,7.39,7.39,0,0,1,2.54.93l1.46-4.21a7.57,7.57,0,0,0-3.11-.95A5.5,5.5,0,0,0,175.19,59.3Z"/><path class="cls-1" d="M198.57,53.74q-2.62-1.34-8-1.33H185V77.14h5.66a25.82,25.82,0,0,0,6.75-.61A9.2,9.2,0,0,0,201,74.35a10.84,10.84,0,0,0,2.62-4,15.26,15.26,0,0,0-.74-12.28A10.4,10.4,0,0,0,198.57,53.74Zm.33,15.57a5.67,5.67,0,0,1-2.38,2.5,11,11,0,0,1-4.68.74h-2.19V56.94h1.6c2.93,0,5.05.66,6.37,2A8.17,8.17,0,0,1,199.83,65,9.05,9.05,0,0,1,198.9,69.31Z"/><path class="cls-1" d="M220.12,60.86A8.38,8.38,0,0,0,217.45,59a7.62,7.62,0,0,0-3.09-.63,8,8,0,0,0-6.08,2.71,9.82,9.82,0,0,0-2.5,6.94,9.57,9.57,0,0,0,2.59,6.84,8.13,8.13,0,0,0,6.13,2.75,7.5,7.5,0,0,0,2.93-.57,9,9,0,0,0,2.69-1.84v1.94h4.59V58.84h-4.59Zm-1.22,11a4.75,4.75,0,0,1-3.59,1.5,4.63,4.63,0,0,1-3.52-1.53,6,6,0,0,1,0-7.76,4.65,4.65,0,0,1,3.54-1.5,4.77,4.77,0,0,1,3.6,1.48A5.35,5.35,0,0,1,220.32,68,5.49,5.49,0,0,1,218.9,71.9Z"/><polygon class="cls-1" points="233.85 52.1 229.26 52.1 229.26 58.84 226.9 58.84 226.9 62.8 229.26 62.8 229.26 77.14 233.85 77.14 233.85 62.8 236.57 62.8 236.57 58.84 233.85 58.84 233.85 52.1"/><path class="cls-1" d="M251.88,60.86A8.31,8.31,0,0,0,249.2,59a7.61,7.61,0,0,0-3.08-.63A8,8,0,0,0,240,61.08,9.83,9.83,0,0,0,237.53,68a9.61,9.61,0,0,0,2.59,6.84,8.15,8.15,0,0,0,6.13,2.75,7.47,7.47,0,0,0,2.93-.57,9,9,0,0,0,2.7-1.84v1.94h4.58V58.84h-4.58Zm-1.23,11a4.73,4.73,0,0,1-3.58,1.5,4.63,4.63,0,0,1-3.53-1.53,6,6,0,0,1,0-7.76,4.65,4.65,0,0,1,3.54-1.5,4.77,4.77,0,0,1,3.6,1.48A5.36,5.36,0,0,1,252.08,68,5.5,5.5,0,0,1,250.65,71.9Z"/><path class="cls-2" d="M76.1,94.67c-3.84.55-6.72,1-6.29,4a4.53,4.53,0,0,0,1.37,2.6h0A7.65,7.65,0,0,0,77.51,103a7.83,7.83,0,0,0,5.34-3,.56.56,0,0,0,0-.08.56.56,0,0,1,0,.08,4.64,4.64,0,0,0,.85-3.28C83.28,93.7,79.94,94.12,76.1,94.67Z"/><polygon points="46.58 61.28 46.27 60.95 46.58 61.28 46.58 61.28"/><path d="M86.51,38.56c-.06-.07-.12-.13-.17-.2l0,0Z"/><path d="M77.12,41.34h0l0,0h0Z"/><polygon points="80.54 36.16 80.68 36 80.68 36 80.54 36.16"/><path d="M77.67,40.29c.09-.17.19-.34.29-.51h0C77.86,40,77.76,40.12,77.67,40.29Z"/><polygon points="79.98 35.29 80.13 35.42 80.13 35.42 79.98 35.29"/><path class="cls-1" d="M56,37.27c-.23-.28-.47-.54-.71-.81-8.79-9.67-23.64-11.94-39.07-5.88a2.59,2.59,0,0,0-1.63,2.08,2.56,2.56,0,0,0,1,2.44c3.93,3,9.51,9.64,14.9,16C39.84,62.31,45.82,69.1,49.53,69.1h0l1.57,0-.68-1.41c-2.2-4.54-2.56-9.28-1.13-14.92.26-.93.55-1.9.87-2.89a52.18,52.18,0,0,1,2.16-5.28h0c.16-.34.33-.68.5-1v0c.49-1,1-2,1.53-3A13,13,0,0,1,55.58,39c.12-.13.23-.27.36-.4l.6-.64Zm-3.28,2.29,0,0c-.41.76-.8,1.51-1.19,2.27l-.36-.11-.65-.21-.84-.24L49,41.15,48.1,41l-.66-.13-.87-.14-.66-.09-.9-.08-.64-.05c-.32,0-.63,0-.95,0l-.6,0-1,0-.5,0c-.51,0-1,.07-1.53.13l-.85.1,0,.85a26.49,26.49,0,0,0,5.76,17.54c.5.62,1,1.25,1.64,1.86l.31.33h0a21,21,0,0,0,1.2,5.18C44,64.19,37.44,56.36,32,49.86s-11.1-13.19-15.2-16.34a.64.64,0,0,1,.15-1.09,43.91,43.91,0,0,1,15.93-3.21c8.44,0,15.87,3,21,8.66l-.08.08,0,0A13.79,13.79,0,0,0,52.69,39.56Z"/><polygon points="77.14 41.3 77.14 41.3 77.14 41.3 77.14 41.3"/><path class="cls-1" d="M117.78,15.79a2.56,2.56,0,0,0-2.23-1.4c-16.78-.49-30.08,6.77-35,19-.11.27-.21.54-.31.82,0,.12-.1.24-.14.37l-.14.4.12.23-.06.06h0l.15.13h0l.18.35.24.14.13.09h0a18.28,18.28,0,0,1,2.74,2.13c.23.22.45.43.66.66.35.39.67.77,1,1.16,5.69,6.8,8.49,13.15,8.56,19.39l0,2,1.6-1.26c3.7-2.94,8.68-13.67,13.49-24,3.31-7.13,6.43-13.86,8.91-17.64A2.59,2.59,0,0,0,117.78,15.79ZM86.31,38.38l0,0c0,.07.11.13.17.2ZM116,17.32c-2.56,3.91-5.71,10.7-9,17.9C103.06,43.58,98.74,52.89,95.48,57A25.14,25.14,0,0,0,95,54l.11-.22a26.5,26.5,0,0,0,1.6-20.89L96.38,32l-.85.16A26.1,26.1,0,0,0,90,33.94a25.25,25.25,0,0,0-5,3,19.34,19.34,0,0,0-2.82-2.29c4.5-11.72,17.18-18.69,33.31-18.22a.6.6,0,0,1,.53.33A.58.58,0,0,1,116,17.32Z"/><path class="cls-1" d="M80.68,36l-.13-.09-.24-.14-.18-.35L80,35.29h0l.06-.06L79.92,35l.14-.4c0-.13.09-.25.14-.37.1-.28.2-.55.31-.82-8.7-4.79-19.56-2.25-25.25,3.05.24.27.48.53.71.81l.57.68-.6.64c-.13.13-.24.27-.36.4A24.56,24.56,0,0,1,64,47.43c.18.3.35.6.52.9h0l.15.29.33.65h0l.15.32h0c.11.22.2.44.3.66l.13.28c.13.32.25.63.37.94h0l0,.05c.11.3.22.6.31.9h0l.1.3c.07.23.14.45.2.67h0l.09.33c.06.23.12.47.17.69l.07.29h0c.07.3.12.59.18.89,0,0,0,.07,0,.11v.09h0c0,.28.1.57.14.86l0,.31h0c0,.22,0,.44.07.67h0c0,.12,0,.23,0,.34s0,.47,0,.71l0,.28h0c0,.32,0,.65,0,1v.14h0c0,.23,0,.46,0,.68a4.24,4.24,0,0,0,4.22,4.36,4.46,4.46,0,0,0,.63,0l.15,0,.09,0h0a4.25,4.25,0,0,0,3.25-5.5l-.06-.22c0-.11-.07-.23-.11-.35l-.15-.51h0l-.09-.35c0-.18-.09-.35-.13-.52l-.08-.35h0c0-.19-.08-.37-.11-.56l-.06-.3c0-.26-.09-.51-.13-.77h0l0-.1h0c0-.29-.07-.58-.1-.87l0-.27c0-.2,0-.4,0-.6h0l0-.33,0-.54h0c0-.12,0-.24,0-.36v-.87c0-.18,0-.35,0-.52h0c0-.12,0-.24,0-.36h0c0-.17,0-.35,0-.52h0l0-.34h0l.06-.57h0l0-.28c0-.26.07-.52.11-.78v-.06h0v0l.15-.85h0l.06-.26.12-.58.08-.33c0-.17.08-.34.13-.51h0l.1-.34h0c0-.17.09-.33.14-.49l.11-.34c.05-.17.11-.33.16-.49h0l.12-.33h0c.06-.17.12-.33.19-.5h0l.12-.31h0c.07-.18.15-.36.22-.53h0l.11-.26h0l.35-.75h0l0,0h0l.4-.77.13-.24c.09-.17.19-.34.29-.51h0l.17-.29c.09-.15.18-.3.28-.45s.12-.2.19-.3h0c.09-.15.19-.29.29-.43h0c.07-.09.13-.19.2-.29l.31-.42.21-.29h0l.33-.42h0l.22-.26h0l.38-.45h0Z"/><path class="cls-1" d="M71.11,85a1.54,1.54,0,0,0,1.27-.68,1.58,1.58,0,0,0,0-1.86,16,16,0,0,1-2.18-4.9c-1.55-4.7-3.47-10.54-12.6-14.17A1.94,1.94,0,0,0,55,65.71C57.67,76.26,62.8,82.56,70.65,85A1.77,1.77,0,0,0,71.11,85Zm-2.58-9a4.56,4.56,0,0,1-4.42,3.46A4.25,4.25,0,0,1,63,79.34a4.49,4.49,0,0,1-2.81-2.08A4.57,4.57,0,0,1,68,72.56,4.52,4.52,0,0,1,68.53,76Z"/><path class="cls-1" d="M65.78,74.25A1.73,1.73,0,1,0,67.5,76,1.73,1.73,0,0,0,65.78,74.25Z"/><path class="cls-1" d="M65.78,77.7A1.73,1.73,0,1,1,67.5,76,1.72,1.72,0,0,1,65.78,77.7Z"/><path class="cls-1" d="M80.29,83.36C87,78.69,90,71.13,89.41,60.25a1.93,1.93,0,0,0-3.16-1.38c-7.61,6.22-7.67,12.37-7.72,17.32a16.19,16.19,0,0,1-.59,5.32,1.59,1.59,0,0,0,.51,1.8,1.56,1.56,0,0,0,1.42.25A1.35,1.35,0,0,0,80.29,83.36ZM79,70.74a4.57,4.57,0,1,1,6.85,4.94,5,5,0,0,1-1,.47,4.55,4.55,0,0,1-5.26-2A4.5,4.5,0,0,1,79,70.74Z"/><path class="cls-1" d="M81.69,71.67a1.73,1.73,0,1,1-1.12,2.17A1.73,1.73,0,0,1,81.69,71.67Z"/><path class="cls-1" d="M80.57,73.84A1.72,1.72,0,1,1,82.73,75,1.72,1.72,0,0,1,80.57,73.84Z"/><path class="cls-3" d="M281.93,56.3a15.79,15.79,0,0,1,11.84,5.34,15.81,15.81,0,1,0-26.85,15.45,15.8,15.8,0,0,1,15-20.79Z"/><path class="cls-2" d="M281.93,56.3a15.8,15.8,0,0,0-15,20.79,15.81,15.81,0,0,0,26.85-15.45A15.79,15.79,0,0,0,281.93,56.3Z"/><path class="cls-1" d="M278.39,69.89a4.53,4.53,0,0,1-1.06,3,3.56,3.56,0,0,1-2.85,1.33l-2,0-1.95,0c-.31,0-.79,0-1.43,0l-1.43,0c-.17,0-.25-.08-.25-.24,0-.74,0-1.85.1-3.34s.11-2.6.11-3.34,0-2-.11-3.53-.1-2.74-.1-3.52c0-.15.08-.23.25-.23h5.43a6.39,6.39,0,0,1,3.39.79,3.27,3.27,0,0,1,1.54,3,3.49,3.49,0,0,1-1.39,2.59c-.19.13-.29.21-.29.25s.1.11.29.22a3.17,3.17,0,0,1,1.24,1.25A3.44,3.44,0,0,1,278.39,69.89Zm-2.84-5.81a1.89,1.89,0,0,0-1.28-1.92,7.52,7.52,0,0,0-2.51-.3c-1.14,0-1.7.09-1.7.26s0,.55,0,1,0,.78,0,1,0,.4,0,.72,0,.57,0,.73.76.29,2.28.29C274.47,65.87,275.55,65.27,275.55,64.08Zm.27,5.71a1.63,1.63,0,0,0-1.1-1.67,6.09,6.09,0,0,0-2.17-.29c-1.7,0-2.55.09-2.55.28v1.66c0,.24,0,.61,0,1.11s0,.87,0,1.12c0,.07.21.12.64.15s1.08,0,1.93,0a4.66,4.66,0,0,0,2.29-.41A2.12,2.12,0,0,0,275.82,69.79Z"/><path class="cls-1" d="M291.06,74.18s-.06.08-.16.08l-.59,0-.59,0-.63,0-.63,0a.39.39,0,0,1-.36-.26c-.21-.45-.83-1.87-1.84-4.26a.83.83,0,0,0-.74-.44h-.92c-.93,0-1.48,0-1.66,0s-.21.19-.21.52,0,1.17.07,2.12.06,1.64.06,2.1c0,.15-.06.22-.2.22s-.34,0-.61-.05a5.82,5.82,0,0,0-.62,0l-.53,0-.52,0c-.17,0-.26-.08-.26-.24,0-.74,0-1.87.11-3.37s.1-2.62.1-3.37c0-2.13-.07-4.41-.23-6.82V60.3c0-.14.14-.21.43-.21.58,0,1.44,0,2.6,0s2,0,2.6,0a5.63,5.63,0,0,1,3.6,1.08,4,4,0,0,1,1.49,3.35,5.64,5.64,0,0,1-.4,2.36,4.59,4.59,0,0,1-1.58,1.73c-.13.09-.19.17-.19.25a27.33,27.33,0,0,0,1.21,2.7A27.24,27.24,0,0,1,291.06,74.18ZM288.29,65a2.61,2.61,0,0,0-1.06-2.45,6.09,6.09,0,0,0-2.8-.45c-1.09,0-1.65.09-1.67.26-.05.36-.07,1.34-.07,2.92v1.94l.13,0,.6,0c.64,0,1.33,0,2.07,0C287.36,67.36,288.29,66.57,288.29,65Z"/></svg>